<?xml version="1.0" encoding="utf-8"?>
<!-- Generator: Adobe Illustrator 24.0.2, SVG Export Plug-In . SVG Version: 6.00 Build 0)  -->
<svg version="1.1" id="Layer_1" xmlns="http://www.w3.org/2000/svg" xmlns:xlink="http://www.w3.org/1999/xlink" x="0px" y="0px"
	 viewBox="0 0 300 300" style="enable-background:new 0 0 300 300;" xml:space="preserve">
<style type="text/css">
	.st0{fill-rule:evenodd;clip-rule:evenodd;fill:#8C96A1;}
	.st1{fill:#8C96A1;}
	.st2{fill-rule:evenodd;clip-rule:evenodd;fill:url(#path3338_1_);stroke:#0C4C75;stroke-width:0.5;}
</style>
<g id="g4204" transform="translate(0,2)">
	<path id="path4206" class="st0" d="M29.3,144.2L0,209.9h19.2l5.7-13.9h29.5l5.7,13.9h19.2l-29.4-65.7
		C49.8,144.2,29.3,144.2,29.3,144.2z M39.7,159.7l5,12.5l5,12.5l-9.9,0l-9.9,0l4.9-12.5L39.7,159.7L39.7,159.7z"/>
	<path id="path4208" class="st0" d="M171.5,144.2l-29.3,65.7h19.2l5.7-13.9h29.5l5.7,13.9h19.2L192,144.2
		C192,144.2,171.5,144.2,171.5,144.2z M181.9,159.7l5,12.5l5,12.5l-9.9,0l-9.9,0l4.9-12.5L181.9,159.7L181.9,159.7z"/>
	<path id="path4210" class="st0" d="M226.4,144h21.8l13.9,20.9l14.8-20.9h21.5l-25.9,31.8l27.5,34.3h-21.8l-15.8-22.4l-15.5,22.4
		h-23.2l28.1-34L226.4,144z"/>
	<path id="path4212" class="st1" d="M134.3,116.2l-26.1,25.6l9,8.1l8.5-8.5l0.9,0v49c0,6.2-5,11.2-11.2,11.2h-8.9
		c-6.2,0-11.2-5-11.2-11.2v-5.2H77.9v6.5c0,11.2,9,20.3,20.3,20.3h23c11.2,0,20.3-9,20.3-20.3v-50.2l0.7,0l9.9,8.5l7.8-8.1
		L134.3,116.2L134.3,116.2z"/>
	<path id="path4214" class="st1" d="M86.5,179.8l26.1-25.6l-9-8.1l-8.5,8.5l-0.9,0v-49c0-6.2,5-11.2,11.2-11.2h8.9
		c6.2,0,11.2,5,11.2,11.2v5.2h17.3v-6.5c0-11.2-9-20.3-20.3-20.3h-23c-11.2,0-20.3,9-20.3,20.3v50.2l-0.7,0l-9.9-8.5l-7.8,8.1
		L86.5,179.8L86.5,179.8z"/>
</g>
<linearGradient id="path3338_1_" gradientUnits="userSpaceOnUse" x1="150" y1="217.2244" x2="150" y2="88.6683" gradientTransform="matrix(1 0 0 -1 0 302.2362)">
	<stop  offset="0" style="stop-color:#70B0DF"/>
	<stop  offset="0.5" style="stop-color:#1B81C5"/>
	<stop  offset="1" style="stop-color:#4A98CE"/>
</linearGradient>
<path id="path3338" class="st2" d="M99.5,86c-11.2,0-20.3,9-20.3,20.3v50.2l-0.7,0l-9.9-8.5l-7.8,8.1l25.6,25.6l26.1-25.6l-9-8.1
	l-8.5,8.5l-0.9,0v-49c0-6.2,5-11.2,11.2-11.2h8.9c6.2,0,11.2,5,11.2,11.2v5.2h17.3v-6.5c0-11.2-9-20.3-20.3-20.3H99.5z M134.3,118.2
	l-26.1,25.6l9,8.1l8.5-8.5l0.9,0v49c0,6.2-5,11.2-11.2,11.2h-8.9c-6.2,0-11.2-5-11.2-11.2v-5.2H77.9v6.5c0,11.2,9,20.3,20.3,20.3h23
	c11.2,0,20.3-9,20.3-20.3v-50.2l0.7,0l9.9,8.5l7.8-8.1L134.3,118.2z M226.4,146l25.3,32.1l-28.1,34h23.2l15.5-22.4l15.8,22.4H300
	l-27.5-34.3l25.9-31.8h-21.5l-14.8,20.9L248.2,146H226.4z M29.3,146.2L0,211.9h19.2l5.7-13.9h29.5l5.7,13.9h19.2l-29.4-65.7H29.3z
	 M171.5,146.2l-29.3,65.7h19.2l5.7-13.9h29.5l5.7,13.9h19.2L192,146.2H171.5z M39.7,161.7l5,12.5l5,12.5l-9.9,0l-9.9,0l4.9-12.5
	L39.7,161.7z M181.9,161.7l5,12.5l5,12.5l-9.9,0l-9.9,0l4.9-12.5L181.9,161.7z"/>
</svg>
