<?xml version="1.0" encoding="utf-8"?>
<!-- Generator: Adobe Illustrator 24.0.2, SVG Export Plug-In . SVG Version: 6.00 Build 0)  -->
<svg version="1.1" id="Layer_1" xmlns="http://www.w3.org/2000/svg" xmlns:xlink="http://www.w3.org/1999/xlink" x="0px" y="0px"
	 viewBox="0 0 300 300" style="enable-background:new 0 0 300 300;" xml:space="preserve">
<style type="text/css">
	.st0{fill:#563D7C;}
	.st1{fill:#FFFFFF;}
</style>
<path class="st0" d="M0,261.3C0,282.7,17.3,300,38.7,300h222.6c21.4,0,38.7-17.3,38.7-38.7V38.7C300,17.3,282.7,0,261.3,0H38.7
	C17.3,0,0,17.3,0,38.7V261.3L0,261.3z"/>
<path class="st1" d="M113.9,132.7V90.2h37.4c3.6,0,7,0.3,10.3,0.9c3.3,0.6,6.2,1.7,8.8,3.2c2.5,1.5,4.6,3.6,6.1,6.4
	c1.5,2.7,2.3,6.2,2.3,10.4c0,7.6-2.3,13.1-6.9,16.5c-4.6,3.4-10.4,5.1-17.6,5.1L113.9,132.7L113.9,132.7z M73.9,59.2v181.6h88
	c8.1,0,16.1-1,23.8-3.1c7.7-2,14.6-5.2,20.6-9.4c6-4.2,10.8-9.7,14.4-16.4c3.6-6.7,5.3-14.6,5.3-23.8c0-11.4-2.8-21.1-8.3-29.1
	c-5.5-8.1-13.9-13.7-25.1-16.9c8.1-3.9,14.3-8.9,18.4-15c4.2-6.1,6.2-13.7,6.2-22.9c0-8.5-1.4-15.6-4.2-21.4
	c-2.8-5.8-6.7-10.4-11.8-13.9c-5.1-3.5-11.2-6-18.3-7.5c-7.1-1.5-15-2.3-23.7-2.3L73.9,59.2L73.9,59.2z M113.9,209.8v-49.9h43.5
	c8.6,0,15.6,2,20.9,6c5.3,4,7.9,10.6,7.9,20c0,4.7-0.8,8.6-2.4,11.7s-3.8,5.5-6.5,7.3c-2.7,1.8-5.9,3.1-9.4,3.8
	c-3.6,0.8-7.3,1.1-11.2,1.1H113.9L113.9,209.8z"/>
</svg>
