<?xml version="1.0" encoding="utf-8"?>
<!-- Generator: Adobe Illustrator 24.0.2, SVG Export Plug-In . SVG Version: 6.00 Build 0)  -->
<svg version="1.1" id="Layer_1" xmlns="http://www.w3.org/2000/svg" xmlns:xlink="http://www.w3.org/1999/xlink" x="0px" y="0px"
	 viewBox="0 0 300 300" style="enable-background:new 0 0 300 300;" xml:space="preserve">
<style type="text/css">
	.st0{fill:#A179DC;}
	.st1{fill:#280068;}
	.st2{fill:#390091;}
	.st3{fill:#FFFFFF;}
</style>
<g>
	<path class="st0" d="M283.4,88.2c0-5-1.1-9.5-3.3-13.3c-2.1-3.8-5.4-6.9-9.7-9.4C235,45,199.4,24.5,163.9,4
		c-9.6-5.5-18.9-5.3-28.4,0.3c-14.1,8.3-85,48.9-106.1,61.1c-8.7,5-12.9,12.7-12.9,22.7c0,41.2,0,82.4,0,123.6c0,4.9,1,9.3,3.1,13.1
		c2.1,3.9,5.4,7.1,9.8,9.7c21.1,12.2,91.9,52.8,106.1,61.1c9.5,5.6,18.8,5.8,28.4,0.3c35.5-20.5,71.1-40.9,106.6-61.4
		c4.4-2.5,7.7-5.8,9.8-9.7c2.1-3.8,3.1-8.1,3.1-13.1C283.5,211.8,283.5,129.4,283.4,88.2"/>
	<path class="st1" d="M150.4,149.6L19.7,224.9c2.1,3.9,5.4,7.1,9.8,9.7c21.1,12.2,91.9,52.8,106.1,61.1c9.5,5.6,18.8,5.8,28.4,0.3
		c35.5-20.5,71.1-40.9,106.6-61.4c4.4-2.5,7.7-5.8,9.8-9.7L150.4,149.6"/>
	<path class="st2" d="M283.4,88.2c0-5-1.1-9.5-3.3-13.3l-129.8,74.7l129.9,75.3c2.1-3.8,3.1-8.1,3.1-13.1
		C283.5,211.8,283.5,129.4,283.4,88.2"/>
	<path class="st3" d="M227.4,121.5v14.1h14.1v-14.1h7v14.1h14.1v7h-14.1v14.1h14.1v7h-14.1v14.1h-7v-14.1h-14.1v14.1h-7v-14.1h-14.1
		v-7h14.1v-14.1h-14.1v-7h14.1v-14.1H227.4z M241.5,142.6h-14.1v14.1h14.1V142.6z"/>
	<path class="st3" d="M150.7,50.8c36.7,0,68.7,19.9,85.9,49.6l-0.2-0.3l-43.2,24.9c-8.5-14.4-24.1-24.1-42-24.3l-0.6,0
		c-27.3,0-49.4,22.1-49.4,49.4c0,8.9,2.4,17.3,6.5,24.5c8.5,14.9,24.5,24.9,42.9,24.9c18.5,0,34.6-10.2,43.1-25.2l-0.2,0.4l43.1,25
		c-17,29.4-48.6,49.2-84.9,49.6l-1.1,0c-36.8,0-69-20.1-86.1-49.8C56.3,184.8,51.5,168,51.5,150C51.5,95.2,95.9,50.8,150.7,50.8z"/>
</g>
</svg>
