<?xml version="1.0" encoding="utf-8"?>
<!-- Generator: Adobe Illustrator 24.0.2, SVG Export Plug-In . SVG Version: 6.00 Build 0)  -->
<svg version="1.1" id="Layer_1" xmlns="http://www.w3.org/2000/svg" xmlns:xlink="http://www.w3.org/1999/xlink" x="0px" y="0px"
	 viewBox="0 0 300 300" style="enable-background:new 0 0 300 300;" xml:space="preserve">
<style type="text/css">
	.st0{fill:#FFFFFF;}
	.st1{fill:#1572B6;}
	.st2{fill:#33A9DC;}
	.st3{fill:#EBEBEB;}
</style>
<path class="st0" d="M210.3,11.1h-17.6L211,31v9.5h-37.8V29.4h18.3L173.2,9.5V0h37.1L210.3,11.1z M165.7,11.1H148L166.4,31v9.5
	h-37.8V29.4H147L128.6,9.5V0h37.1L165.7,11.1L165.7,11.1z M121.6,11.6h-19V29h19v11.6H89V0h32.6V11.6z"/>
<path class="st1" d="M63.1,275.9L43.7,59h212.5l-19.4,216.9l-87,24.1L63.1,275.9z"/>
<path class="st2" d="M150,281.6l70.3-19.5l16.5-185.4H150V281.6z"/>
<path class="st0" d="M150,155.3h35.2l2.4-27.2H150v-26.6h66.7l-0.6,7.1l-6.5,73.3H150V155.3z"/>
<path class="st3" d="M150.1,224.4H150l-29.6-8l-1.9-21.2H91.8l3.7,41.8l54.5,15.2h0.2L150.1,224.4L150.1,224.4z"/>
<path class="st0" d="M183,180.8l-3.2,35.6l-29.7,8v27.7l54.5-15.1l0.4-4.5l4.6-51.7L183,180.8L183,180.8z"/>
<path class="st3" d="M150.1,101.5v26.6H85.8l-0.6-6L84,108.6l-0.6-7.1L150.1,101.5z M150,155.3v26.6h-29.3l-0.5-6l-1.2-13.5
	l-0.6-7.1H150L150,155.3z"/>
</svg>
