<?xml version="1.0" encoding="utf-8"?>
<!-- Generator: Adobe Illustrator 24.0.2, SVG Export Plug-In . SVG Version: 6.00 Build 0)  -->
<svg version="1.1" id="Layer_1" xmlns="http://www.w3.org/2000/svg" xmlns:xlink="http://www.w3.org/1999/xlink" x="0px" y="0px"
	 viewBox="0 0 300 300" style="enable-background:new 0 0 300 300;" xml:space="preserve">
<style type="text/css">
	.st0{fill:#0ACF83;}
	.st1{fill:#A259FF;}
	.st2{fill:#F24E1E;}
	.st3{fill:#FF7262;}
	.st4{fill:#1ABCFE;}
</style>
<path id="path0_fill" class="st0" d="M100.1,299.8c27.5,0,49.8-22.3,49.8-49.8v-49.8h-49.8c-27.5,0-49.8,22.3-49.8,49.8
	S72.6,299.8,100.1,299.8z"/>
<path id="path1_fill" class="st1" d="M50.3,150.3c0-27.5,22.3-49.8,49.8-49.8H150v99.7h-49.8C72.6,200.1,50.3,177.8,50.3,150.3z"/>
<path id="path1_fill_1_" class="st2" d="M50.3,50.6c0-27.5,22.3-49.8,49.8-49.8H150v99.7h-49.8C72.6,100.5,50.3,78.1,50.3,50.6z"/>
<path id="path2_fill" class="st3" d="M150,0.8h49.8c27.5,0,49.8,22.3,49.8,49.8s-22.3,49.8-49.8,49.8H150V0.8z"/>
<path id="path3_fill" class="st4" d="M249.6,150.3c0,27.5-22.3,49.8-49.8,49.8S150,177.8,150,150.3s22.3-49.8,49.8-49.8
	S249.6,122.8,249.6,150.3z"/>
</svg>
