<?xml version="1.0" encoding="utf-8"?>
<!-- Generator: Adobe Illustrator 24.0.2, SVG Export Plug-In . SVG Version: 6.00 Build 0)  -->
<svg version="1.1" id="Layer_1" xmlns="http://www.w3.org/2000/svg" xmlns:xlink="http://www.w3.org/1999/xlink" x="0px" y="0px"
	 viewBox="0 0 300 300" style="enable-background:new 0 0 300 300;" xml:space="preserve">
<style type="text/css">
	.st0{fill:#DE4C36;}
</style>
<path class="st0" d="M294.3,136.6l-131-131c-7.5-7.5-19.8-7.5-27.3,0l-27.2,27.2l34.5,34.5c8-2.7,17.2-0.9,23.6,5.5
	c6.4,6.4,8.2,15.7,5.5,23.7l33.3,33.3c8-2.8,17.3-1,23.8,5.5c9,9,9,23.5,0,32.5c-9,9-23.5,9-32.5,0c-6.8-6.8-8.4-16.7-5-25l-31-31
	l0,81.6c2.2,1.1,4.3,2.6,6.1,4.3c9,9,9,23.5,0,32.5c-9,9-23.5,9-32.5,0c-9-9-9-23.5,0-32.5c2.2-2.2,4.7-3.9,7.5-5v-82.4
	c-2.8-1.2-5.4-2.9-7.5-5c-6.8-6.8-8.4-16.8-5-25.1l-34-34L5.7,136c-7.5,7.6-7.5,19.8,0,27.3l131,131c7.5,7.5,19.8,7.5,27.3,0
	L294.3,164C301.9,156.4,301.9,144.2,294.3,136.6"/>
</svg>
