<?xml version="1.0" encoding="utf-8"?>
<!-- Generator: Adobe Illustrator 24.0.2, SVG Export Plug-In . SVG Version: 6.00 Build 0)  -->
<svg version="1.1" id="Layer_1" xmlns="http://www.w3.org/2000/svg" xmlns:xlink="http://www.w3.org/1999/xlink" x="0px" y="0px"
	 viewBox="0 0 300 300" style="enable-background:new 0 0 300 300;" xml:space="preserve">
<style type="text/css">
	.st0{fill:#6762A6;}
	.st1{fill:#FFFFFF;}
</style>
<path class="st0" d="M75,298.9v-26.1c0-1.8-1.4-2.6-2.9-2.6c-3.2,0-7.2,0.8-10.8,2.4v26.4h-7.4v-48.5h7.4v16
	c3.5-1.3,7.7-2.4,11.8-2.4c6.7,0,9.2,4.1,9.2,9.7v25.1L75,298.9L75,298.9z M96,283.1c0.2,8.8,2,10.5,7.4,10.5c4.2,0,9-1.4,12.7-2.8
	l1.2,5.5c-3.9,1.8-8.7,3.5-14.4,3.5c-12.3,0-14.2-6.7-14.2-17.5c0-5.9,0.4-11.2,1.8-16.1c3.7-1.4,8.6-2.1,14.8-2.1
	c10.1,0,13.1,5.6,13.1,15.3v3.7H96L96,283.1z M105.3,270.2c-2.2,0-5.7,0.1-8.6,0.6c-0.3,1.5-0.7,3.5-0.8,7.2h15.3
	C111.3,272.9,110.3,270.2,105.3,270.2L105.3,270.2z M132.2,272.6v26.4h-7.4v-29.7c6.2-3.4,12.8-4.4,17-4.7v6.1
	C138.9,270.9,135.1,271.3,132.2,272.6L132.2,272.6z M161.3,299.8c-11,0-15.9-5.4-15.9-17.7c0-13.1,6.6-18,15.9-18
	c11,0,15.9,5.4,15.9,17.7C177.3,294.8,170.7,299.8,161.3,299.8L161.3,299.8z M161.3,270.2c-5.6,0-8.8,3.2-8.8,11.9
	c0,9.4,2.6,11.5,8.8,11.5c5.6,0,8.8-3.2,8.8-11.8C170.1,272.3,167.5,270.2,161.3,270.2L161.3,270.2z M212.8,298.9h-8.6
	c-2-5.4-4.8-10.9-9.2-15.7h-3.9v15.7h-7.4v-48.5h7.4v27.8h3.4c3.7-3.9,6.6-8.6,8.6-13.4h8.3c-2.8,5.7-6.4,10.7-10.5,14.8
	C205.8,285.9,209.6,292.4,212.8,298.9L212.8,298.9z M226.6,299.8c-6.7,0-9.2-4.1-9.2-9.7v-25.1h7.3V291c0,1.8,1.3,2.6,2.9,2.6
	c3.2,0,7.5-0.8,11.2-2.4v-26.3h7.4v29.6C237.4,299.2,230.7,299.8,226.6,299.8z M223.3,238.1H76.6c-12.6,0-22.7-10.2-22.7-22.7V22.5
	C53.9,10,64-0.2,76.6-0.2h146.7c12.6,0,22.7,10.2,22.7,22.7v192.8C246.1,227.9,235.9,238.1,223.3,238.1L223.3,238.1z"/>
<path class="st1" d="M170.1,205.3v-94.6c0,0,6.2-22.6-75.8,9.3c-0.2,0.4-0.2-87.5-0.2-87.5l26.8-0.2v56.3c0,0,75-29.5,75,22.4v94.3
	H170.1L170.1,205.3z M185.4,66.3H157c10.2-12.5,19.5-33.9,19.5-33.9h29.4C205.8,32.4,200.8,46.4,185.4,66.3L185.4,66.3z M94.6,205.1
	v-53.9l26.9,26.9L94.6,205.1L94.6,205.1z"/>
</svg>
