<?xml version="1.0" encoding="utf-8"?>
<!-- Generator: Adobe Illustrator 24.0.2, SVG Export Plug-In . SVG Version: 6.00 Build 0)  -->
<svg version="1.1" id="Layer_1" xmlns="http://www.w3.org/2000/svg" xmlns:xlink="http://www.w3.org/1999/xlink" x="0px" y="0px"
	 viewBox="0 0 300 300" style="enable-background:new 0 0 300 300;" xml:space="preserve">
<style type="text/css">
	.st0{fill:#E44D26;}
	.st1{fill:#F16529;}
	.st2{fill:#EBEBEB;}
	.st3{fill:#FFFFFF;}
</style>
<path class="st0" d="M256,58.7l-19.4,216.9l-87,24.1l-86.8-24.1L43.5,58.7H256L256,58.7z"/>
<path class="st1" d="M149.8,281.3l70.3-19.5l16.5-185.4h-86.9L149.8,281.3L149.8,281.3z"/>
<path class="st2" d="M112.1,129.7h37.6v-26.6H83l0.6,7.1l6.5,73.3h59.5v-26.6h-35.2L112.1,129.7z M118.1,196.9H91.4l3.7,41.8
	l54.5,15.1h0.1V226h-0.1l-29.6-8L118.1,196.9L118.1,196.9z"/>
<path class="st3" d="M63.3-0.2h13.5v13.4h12.4V-0.2h13.5v40.5H89.2V26.7H76.8v13.5H63.3V-0.2L63.3-0.2z M120.5,13.2h-11.9V-0.2h37.3
	v13.4H134v27h-13.5V13.2L120.5,13.2L120.5,13.2z M151.8-0.2h14.1l8.7,14.2l8.7-14.2h14.1v40.5h-13.5V20.2l-9.3,14.4h-0.2L165,20.2
	v20.1h-13.2V-0.2z M204.1-0.2h13.5v27.1h19v13.4h-32.5V-0.2L204.1-0.2z"/>
<path class="st3" d="M149.7,183.5h32.8l-3.1,34.5l-29.7,8v27.7l54.5-15.1l0.4-4.5l6.3-70l0.6-7.1h-61.8V183.5L149.7,183.5z
	 M149.7,129.6L149.7,129.6l64.3,0.1l0.5-6l1.2-13.5l0.6-7.1h-66.7L149.7,129.6L149.7,129.6z"/>
</svg>
