<?xml version="1.0" encoding="utf-8"?>
<!-- Generator: Adobe Illustrator 24.0.2, SVG Export Plug-In . SVG Version: 6.00 Build 0)  -->
<svg version="1.1" id="Layer_1" xmlns="http://www.w3.org/2000/svg" xmlns:xlink="http://www.w3.org/1999/xlink" x="0px" y="0px"
	 viewBox="0 0 300 300" style="enable-background:new 0 0 300 300;" xml:space="preserve">
<style type="text/css">
	.st0{fill:#E76F00;}
	.st1{fill:#5382A1;}
</style>
<g>
	<path class="st0" d="M223.9,236.6h-1.1v-0.6h3v0.6h-1.1v3.2h-0.8V236.6z M229.9,236.7L229.9,236.7l-1.1,3h-0.5l-1.1-3h0v3h-0.7
		v-3.8h1.1l1,2.7l1-2.7h1.1v3.8h-0.7L229.9,236.7L229.9,236.7z"/>
	<path class="st1" d="M122.7,159.1c0,0-7.9,4.6,5.6,6.1c16.3,1.9,24.6,1.6,42.6-1.8c0,0,4.7,3,11.3,5.5
		C141.9,186.2,91,168,122.7,159.1"/>
	<path class="st1" d="M117.8,136.6c0,0-8.8,6.5,4.6,7.9c17.4,1.8,31.2,1.9,55-2.6c0,0,3.3,3.3,8.5,5.2
		C137.1,161.3,82.9,148.2,117.8,136.6"/>
	<path class="st0" d="M159.3,98.4c9.9,11.4-2.6,21.7-2.6,21.7s25.2-13,13.6-29.3c-10.8-15.2-19.1-22.7,25.8-48.8
		C196.1,42,125.6,59.6,159.3,98.4"/>
	<path class="st1" d="M212.5,175.8c0,0,5.8,4.8-6.4,8.5c-23.3,7-96.8,9.2-117.2,0.3c-7.3-3.2,6.4-7.6,10.8-8.6
		c4.5-1,7.1-0.8,7.1-0.8c-8.2-5.8-52.8,11.3-22.7,16.2C166.2,204.7,233.8,185.4,212.5,175.8"/>
	<path class="st1" d="M126.5,113.3c0,0-37.4,8.9-13.2,12.1c10.2,1.4,30.5,1.1,49.5-0.5c15.5-1.3,31-4.1,31-4.1s-5.5,2.3-9.4,5
		c-38,10-111.3,5.3-90.2-4.9C111.9,112.3,126.5,113.3,126.5,113.3"/>
	<path class="st1" d="M193.5,150.8c38.6-20.1,20.8-39.3,8.3-36.7c-3.1,0.6-4.4,1.2-4.4,1.2s1.1-1.8,3.3-2.5
		c24.6-8.7,43.6,25.6-8,39.1C192.8,151.8,193.4,151.2,193.5,150.8"/>
	<path class="st0" d="M170.3,0c0,0,21.4,21.4-20.3,54.3c-33.4,26.4-7.6,41.4,0,58.6c-19.5-17.6-33.8-33.1-24.2-47.5
		C139.9,44.2,178.9,34,170.3,0"/>
	<path class="st1" d="M130.3,205.1c37.1,2.4,94-1.3,95.3-18.9c0,0-2.6,6.6-30.6,11.9c-31.6,6-70.6,5.3-93.8,1.4
		C101.2,199.6,105.9,203.6,130.3,205.1"/>
	<path class="st0" d="M124.2,272.1c-3.5,3-7.2,4.7-10.5,4.7c-4.7,0-7.3-2.8-7.3-7.4c0-4.9,2.7-8.5,13.7-8.5h4.1V272.1 M133.8,283
		v-33.7c0-8.6-4.9-14.3-16.7-14.3c-6.9,0-13,1.7-17.9,3.9l1.4,6c3.9-1.4,8.9-2.7,13.8-2.7c6.8,0,9.8,2.7,9.8,8.4v4.3h-3.4
		c-16.6,0-24,6.4-24,16.1c0,8.3,4.9,13.1,14.2,13.1c6,0,10.4-2.5,14.6-6.1l0.8,5.1L133.8,283L133.8,283z"/>
	<path class="st0" d="M166,283h-12l-14.5-47.1H150l9,29l2,8.7c4.5-12.6,7.8-25.4,9.4-37.7h10.2C177.8,251.4,172.9,268.4,166,283"/>
	<path class="st0" d="M212.2,272.1c-3.5,3-7.2,4.7-10.5,4.7c-4.7,0-7.3-2.8-7.3-7.4c0-4.9,2.7-8.5,13.7-8.5h4.1V272.1 M221.8,283
		v-33.7c0-8.6-4.9-14.3-16.7-14.3c-6.9,0-13,1.7-17.9,3.9l1.4,6c3.9-1.4,8.9-2.7,13.8-2.7c6.8,0,9.8,2.7,9.8,8.4v4.3h-3.4
		c-16.6,0-24,6.4-24,16.1c0,8.3,4.9,13.1,14.2,13.1c6,0,10.4-2.5,14.6-6.1l0.8,5.1L221.8,283L221.8,283z"/>
	<path class="st0" d="M86.2,291c-2.8,4-7.2,7.2-12.1,9l-4.8-5.6c3.7-1.9,6.9-5,8.3-7.8c1.3-2.5,1.8-5.8,1.8-13.6v-53.8h10.2v53.1
		C89.8,282.7,88.9,286.9,86.2,291"/>
</g>
</svg>
