<?xml version="1.0" encoding="utf-8"?>
<!-- Generator: Adobe Illustrator 24.0.2, SVG Export Plug-In . SVG Version: 6.00 Build 0)  -->
<svg version="1.1" id="Layer_1" xmlns="http://www.w3.org/2000/svg" xmlns:xlink="http://www.w3.org/1999/xlink" x="0px" y="0px"
	 viewBox="0 0 300 300" style="enable-background:new 0 0 300 300;" xml:space="preserve">
<style type="text/css">
	.st0{fill:#99425B;stroke:#FFFFFF;stroke-width:20;}
	.st1{fill:none;stroke:#FFFFFF;stroke-width:20;}
	.st2{fill:#99425B;}
</style>
<path class="st0" d="M243.9,148.4c-0.3,0.2-12.2-1.8-27.1-2.8c-12.1-0.8-26.3-0.8-37.8,0c-9.3,0.6-21.6-4.1-23.1,1.5
	c-5.5,20.9-17.3,39.1-32.3,53.3c-11.3,10.7-24.3,18.7-38.3,23.7c-16.7-8.5-24.5-27.6-17.5-44.3c5.6-13.3,12.2-27.8,0.1-31.1
	c-8.8-2.4-13.7,6-17,15C44.4,181,32,198.9,28.5,220.1c-3.7,22.3,0,46.1,19.3,59.5c45.1,31.2,94-19.3,145.5-32.1
	c18.7-4.6,39.2-3.9,55.7-13.4c12.3-7.1,20.5-19,22.8-32.3C275.5,180.3,264.4,159.1,243.9,148.4z"/>
<path class="st1" d="M155.9,147.1c-5.5,20.9-17.3,39.1-32.3,53.3c-11.3,10.7-24.3,18.7-38.3,23.7c-16.7-8.5-24.5-27.6-17.5-44.3
	c5.6-13.3,12.2-27.8,0.1-31.1c-8.8-2.4-13.7,6-17,15C44.4,181,32,198.9,28.5,220.1c-3.7,22.3,0,46.1,19.3,59.5
	c45.1,31.2,94-19.3,145.5-32.1c18.7-4.6,39.2-3.9,55.7-13.4c12.3-7.1,20.5-19,22.8-32.3c3.7-21.4-7.4-42.7-27.9-53.3"/>
<path class="st2" d="M197.2,63.8l36.2,73.9l43.4-128H117.5l43.3,127.8L197.2,63.8z"/>
<path class="st1" d="M197.2,63.8l36.2,73.9l43.4-128H117.5l43.3,127.8L197.2,63.8z"/>
<circle class="st2" cx="153.3" cy="147.4" r="27.3"/>
<g>
	<circle class="st1" cx="153.3" cy="147.4" r="27.3"/>
	<circle class="st0" cx="242.2" cy="147.4" r="27.3"/>
	<circle class="st1" cx="242.2" cy="147.4" r="27.3"/>
</g>
<circle class="st2" cx="64" cy="147.6" r="27.3"/>
<circle class="st1" cx="64" cy="147.6" r="27.3"/>
</svg>
