<?xml version="1.0" encoding="utf-8"?>
<!-- Generator: Adobe Illustrator 24.0.2, SVG Export Plug-In . SVG Version: 6.00 Build 0)  -->
<svg version="1.1" id="Layer_1" xmlns="http://www.w3.org/2000/svg" xmlns:xlink="http://www.w3.org/1999/xlink" x="0px" y="0px"
	 viewBox="0 0 300 300" style="enable-background:new 0 0 300 300;" xml:space="preserve">
<style type="text/css">
	.st0{fill:url(#SVGID_1_);}
	.st1{fill:#31C5F0;}
</style>
<radialGradient id="SVGID_1_" cx="-289.9736" cy="76.5137" r="9.119985e-02" gradientTransform="matrix(2291.6716 0 0 -2218.7549 664627.25 169841.2969)" gradientUnits="userSpaceOnUse">
	<stop  offset="0" style="stop-color:#34364E;stop-opacity:0.98"/>
	<stop  offset="1" style="stop-color:#0C0824"/>
</radialGradient>
<path class="st0" d="M12.5,16.2h275v267.5h-275V16.2z"/>
<path class="st1" d="M12.5,16.2h275v267.5h-275V16.2z M0,296.3h300V3.7H0V296.3z M202.3,123.7c-9.9,0-13.2,5-13.2,9.1
	c0,4.5,2.2,7.6,15.5,14.5c19.6,9.5,25.8,18.6,25.8,32c0,20-15.2,30.7-35.9,30.7c-10.9,0-20.3-2.3-25.6-5.4c-0.9-0.4-1-1-1-2v-18.4
	c0-1.2,0.6-1.6,1.5-1c7.9,5.1,16.9,7.4,25.1,7.4c9.9,0,14-4.1,14-9.8c0-4.5-2.9-8.5-15.5-15c-17.8-8.5-25.1-17.1-25.1-31.5
	c0-16.1,12.6-29.5,34.5-29.5c10.8,0,18.3,1.6,22.4,3.5c1,0.6,1.2,1.6,1.2,2.5v17.1c0,1-0.6,1.6-1.9,1.2
	C218.5,125.9,210.4,123.7,202.3,123.7L202.3,123.7z M94.7,138.6c2.9,0.2,5.1,0.2,10.1,0.2c14.6,0,28.4-5.1,28.4-25
	c0-15.9-9.9-23.9-26.5-23.9c-5,0-9.8,0.2-12,0.4V138.6z M72.5,72.2c0-0.9,1.8-1.5,2.7-1.5c8-0.4,19.9-0.6,32.3-0.6
	c34.6,0,48.1,19,48.1,43.3c0,31.7-23,45.4-51.2,45.4c-4.7,0-6.4-0.2-9.8-0.2v48c0,1-0.4,1.5-1.5,1.5H74c-1,0-1.5-0.4-1.5-1.5
	L72.5,72.2L72.5,72.2z"/>
</svg>
