<?xml version="1.0" encoding="utf-8"?>
<!-- Generator: Adobe Illustrator 24.0.2, SVG Export Plug-In . SVG Version: 6.00 Build 0)  -->
<svg version="1.1" id="Layer_1" xmlns="http://www.w3.org/2000/svg" xmlns:xlink="http://www.w3.org/1999/xlink" x="0px" y="0px"
	 viewBox="0 0 300 300" style="enable-background:new 0 0 300 300;" xml:space="preserve">
<style type="text/css">
	.st0{fill:#336791;}
	.st1{fill:#FFFFFF;}
</style>
<path d="M294.6,179.7c-1.7-5.3-6.3-9-12.3-9.9c-2.8-0.4-6-0.2-9.8,0.5c-6.6,1.4-11.5,1.9-15.1,2c13.5-22.8,24.5-48.7,30.8-73.2
	c10.2-39.5,4.8-57.5-1.6-65.7C269.8,11.9,245.2,0.4,215.5,0c-15.8-0.2-29.7,2.9-37,5.2c-6.8-1.2-14-1.9-21.6-2
	C142.6,3,130,6.1,119.2,12.5c-6-2-15.6-4.9-26.6-6.7c-26-4.3-47-0.9-62.3,9.9C11.6,28.8,3,51.6,4.6,83.5c0.5,10.1,6.2,40.9,15.1,70
	c5.1,16.8,10.6,30.7,16.2,41.4c8,15.2,16.6,24.1,26.2,27.3c5.4,1.8,15.2,3.1,25.5-5.5c1.3,1.6,3,3.2,5.4,4.6
	c2.9,1.9,6.5,3.4,10.1,4.3c12.9,3.2,25,2.4,35.4-2.1c0.1,1.8,0.1,3.6,0.2,5.1c0.1,2.5,0.1,4.9,0.2,7.1c0.6,15.2,1.6,27.1,4.7,35.4
	c0.2,0.5,0.4,1.2,0.6,1.9c1.5,4.7,4.1,12.5,10.6,18.7c6.8,6.4,14.9,8.3,22.4,8.3c3.8,0,7.3-0.5,10.5-1.2
	c11.2-2.4,23.9-6.1,33.1-19.1c8.7-12.4,12.9-31,13.7-60.4c0.1-0.8,0.2-1.6,0.3-2.4l0.2-1.6l2,0.2l0.5,0c11.4,0.5,25.3-1.9,33.9-5.9
	C278.1,206.6,299.7,195.2,294.6,179.7"/>
<path class="st0" d="M275.1,182.7c-33.9,7-36.2-4.5-36.2-4.5c35.8-53.1,50.7-120.5,37.8-137c-35.2-45-96.2-23.7-97.2-23.2l-0.3,0.1
	c-6.7-1.4-14.2-2.2-22.6-2.4c-15.3-0.3-27,4-35.8,10.7c0,0-108.7-44.8-103.7,56.3C18.3,104.4,48,245.6,83.5,203
	c13-15.6,25.5-28.8,25.5-28.8c6.2,4.1,13.7,6.2,21.5,5.5l0.6-0.5c-0.2,1.9-0.1,3.8,0.2,6.1c-9.1,10.2-6.5,12-24.7,15.8
	c-18.5,3.8-7.6,10.6-0.5,12.4c8.6,2.2,28.5,5.2,41.9-13.6l-0.5,2.1c3.6,2.9,6.1,18.7,5.7,33c-0.4,14.3-0.7,24.2,2.1,31.8
	c2.8,7.7,5.6,25,29.7,19.8c20.1-4.3,30.5-15.5,31.9-34.1c1-13.2,3.4-11.3,3.5-23.1l1.9-5.6c2.2-17.9,0.3-23.7,12.7-21l3,0.3
	c9.1,0.4,21-1.5,28-4.7C281.1,191.3,290,179.6,275.1,182.7L275.1,182.7"/>
<path class="st1" d="M127.2,92.5c-3.1-0.4-5.8,0-7.2,1c-0.8,0.6-1,1.3-1.1,1.8c-0.2,1.3,0.7,2.7,1.2,3.4c1.5,2,3.8,3.4,6,3.7
	c0.3,0,0.6,0.1,1,0.1c3.7,0,7.1-2.9,7.4-5C134.8,94.8,131,93,127.2,92.5 M228.4,92.6c-0.3-2.1-4-2.7-7.5-2.2
	c-3.5,0.5-6.9,2.1-6.6,4.2c0.2,1.6,3.2,4.4,6.6,4.4c0.3,0,0.6,0,0.9-0.1c2.3-0.3,4-1.8,4.8-2.6C227.8,94.9,228.5,93.5,228.4,92.6"/>
<path class="st1" d="M286.4,181.9c-1.3-3.9-5.5-5.2-12.4-3.7c-20.5,4.2-27.9,1.3-30.3-0.5c15.9-24.3,29.1-53.7,36.1-81.1
	c3.4-13,5.2-25,5.4-34.9c0.2-10.8-1.7-18.7-5.5-23.5C264.6,18.7,242.1,8.3,215,8c-18.7-0.2-34.4,4.6-37.5,5.9
	c-6.4-1.6-13.4-2.6-21.1-2.7c-14-0.2-26.1,3.1-36.1,10c-4.4-1.6-15.6-5.5-29.4-7.7c-23.8-3.8-42.7-0.9-56.2,8.6
	C18.7,33.5,11.3,53.9,12.7,82.6c0.5,9.7,6,39.5,14.7,68c11.5,37.6,23.9,58.8,37,63.2c1.5,0.5,3.3,0.9,5.3,0.9
	c4.8,0,10.6-2.2,16.7-9.5c7.4-8.9,15.1-17.6,23.1-26.1c5.2,2.8,10.8,4.3,16.6,4.5c0,0.2,0,0.3,0,0.5c-1,1.2-2,2.4-2.9,3.6
	c-4,5.1-4.8,6.2-17.8,8.8c-3.7,0.8-13.4,2.8-13.6,9.6c-0.2,7.5,11.5,10.6,12.9,10.9c4.6,1.2,9.1,1.7,13.4,1.7
	c10.4,0,19.5-3.4,26.8-10c-0.2,26.6,0.9,52.9,4.1,60.9c2.6,6.5,9,22.6,29.2,22.6c3,0,6.2-0.3,9.8-1.1c21.1-4.5,30.3-13.9,33.8-34.4
	c1.9-11,5.2-37.2,6.7-51.3c3.2,1,7.4,1.5,11.9,1.5c9.4,0,20.2-2,27-5.1C275.2,198.2,288.9,189.5,286.4,181.9L286.4,181.9z
	 M236.2,86.8c-0.1,4.2-0.6,7.9-1.2,11.9c-0.7,4.2-1.3,8.6-1.5,13.9c-0.2,5.2,0.5,10.6,1.1,15.8c1.3,10.5,2.6,21.3-2.5,32
	c-0.8-1.5-1.6-3-2.2-4.6c-0.6-1.5-2-3.9-3.9-7.3c-7.3-13.1-24.4-43.7-15.6-56.2C213,88.6,219.6,84.7,236.2,86.8L236.2,86.8z
	 M216.1,16.4c24.3,0.5,43.5,9.6,57.1,27c10.4,13.3-1.1,74.1-34.3,126.4c-0.3-0.4-0.7-0.8-1-1.3l-0.4-0.5c8.6-14.2,6.9-28.3,5.4-40.7
	c-0.6-5.1-1.2-9.9-1-14.5c0.2-4.8,0.8-8.9,1.4-12.9c0.8-4.9,1.5-10,1.3-16c0.2-0.6,0.2-1.4,0.1-2.3c-0.5-5.7-7.1-23-20.5-38.5
	c-7.3-8.5-18-18-32.6-24.5C197.9,17.4,206.5,16.2,216.1,16.4L216.1,16.4z M80,199.9c-6.7,8.1-11.4,6.5-12.9,6
	c-9.9-3.3-21.5-24.3-31.7-57.7c-8.8-28.8-14-57.9-14.4-66c-1.3-25.7,5-43.7,18.5-53.3c22.1-15.7,58.5-6.3,73.1-1.5
	c-0.2,0.2-0.4,0.4-0.6,0.6c-24,24.2-23.4,65.6-23.3,68.1c0,1,0.1,2.4,0.2,4.3c0.4,7,1.2,19.9-0.9,34.6c-1.9,13.6,2.3,27,11.5,36.6
	c0.9,1,1.9,1.9,3,2.8C98.5,178.7,89.5,188.4,80,199.9L80,199.9z M105.7,165.7c-7.4-7.8-10.8-18.6-9.3-29.6c2.2-15.5,1.4-29,0.9-36.2
	c-0.1-1-0.1-1.9-0.1-2.6c3.5-3.1,19.7-11.8,31.3-9.1c5.3,1.2,8.5,4.8,9.8,11c6.9,32,0.9,45.4-3.9,56.1c-1,2.2-1.9,4.3-2.7,6.5
	l-0.6,1.7c-1.6,4.2-3,8.1-3.9,11.9C119.2,175.2,111.5,171.8,105.7,165.7L105.7,165.7z M106.9,208.9c-2.3-0.6-4.4-1.6-5.6-2.4
	c1-0.5,2.8-1.1,6-1.8c15.2-3.1,17.5-5.3,22.7-11.8c1.2-1.5,2.5-3.2,4.4-5.2l0,0c2.7-3.1,4-2.6,6.3-1.6c1.8,0.8,3.6,3.1,4.4,5.6
	c0.3,1.2,0.7,3.5-0.5,5.3C133.7,211.9,118.1,211.7,106.9,208.9z M186.4,282.9c-18.6,4-25.2-5.5-29.5-16.3c-2.8-7-4.2-38.6-3.2-73.4
	c0-0.5-0.1-0.9-0.2-1.3c-0.1-0.8-0.3-1.7-0.5-2.5c-1.5-5.1-5-9.3-9.2-11.1c-1.7-0.7-4.8-2-8.5-1c0.8-3.3,2.2-7,3.7-11l0.6-1.7
	c0.7-1.9,1.6-3.9,2.5-5.9c5.1-11.2,12-26.6,4.5-61.3c-2.8-13-12.2-19.4-26.4-17.9c-8.5,0.9-16.3,4.3-20.2,6.3
	c-0.8,0.4-1.6,0.8-2.3,1.2c1.1-13.1,5.2-37.6,20.6-53.1c9.7-9.8,22.6-14.6,38.2-14.3c30.9,0.5,50.8,16.4,61.9,29.6
	c9.6,11.4,14.9,22.9,16.9,29.1c-15.7-1.6-26.3,1.5-31.7,9.2c-11.8,16.8,6.4,49.4,15.2,65.1c1.6,2.9,3,5.4,3.4,6.4
	c2.8,6.9,6.5,11.5,9.2,14.9c0.8,1,1.6,2,2.2,2.9c-4.7,1.4-13.3,4.5-12.5,20.3c-0.6,7.9-5.1,45.1-7.3,58.2
	C210.7,272.6,204.3,279,186.4,282.9L186.4,282.9z M264,194.1c-4.9,2.3-13,3.9-20.7,4.3c-8.5,0.4-12.9-1-13.9-1.8
	c-0.5-9.8,3.2-10.9,7.1-12c0.6-0.2,1.2-0.3,1.8-0.5c0.4,0.3,0.7,0.6,1.2,0.9c6.9,4.5,19.1,5,36.3,1.4l0.2,0
	C273.6,188.5,269.6,191.5,264,194.1L264,194.1z"/>
</svg>
