<?xml version="1.0" encoding="utf-8"?>
<!-- Generator: Adobe Illustrator 24.0.2, SVG Export Plug-In . SVG Version: 6.00 Build 0)  -->
<svg version="1.1"
	 id="Layer_1" xmlns:cc="http://creativecommons.org/ns#" xmlns:dc="http://purl.org/dc/elements/1.1/" xmlns:inkscape="http://www.inkscape.org/namespaces/inkscape" xmlns:rdf="http://www.w3.org/1999/02/22-rdf-syntax-ns#" xmlns:sodipodi="http://sodipodi.sourceforge.net/DTD/sodipodi-0.dtd" xmlns:svg="http://www.w3.org/2000/svg"
	 xmlns="http://www.w3.org/2000/svg" xmlns:xlink="http://www.w3.org/1999/xlink" x="0px" y="0px" viewBox="0 0 300 300"
	 style="enable-background:new 0 0 300 300;" xml:space="preserve">
<style type="text/css">
	.st0{fill:#CC0000;}
</style>
<sodipodi:namedview  bordercolor="#666666" borderopacity="1" gridtolerance="10" guidetolerance="10" id="namedview3487" inkscape:current-layer="Layer_1" inkscape:cx="99.065005" inkscape:cy="98.790004" inkscape:pageopacity="0" inkscape:pageshadow="2" inkscape:window-height="1124" inkscape:window-maximized="0" inkscape:window-width="1036" inkscape:window-x="882" inkscape:window-y="24" inkscape:zoom="1.3412289" objecttolerance="10" pagecolor="#ffffff" showgrid="false">
	</sodipodi:namedview>
<path class="st0" d="M261.1,189.5v13.7h24.8c5.1,0,13.8-3.7,14.1-14.1v-5.3c0-8.9-7.3-14.1-14.1-14.1h-12.4v-6.4H298v-13.8h-23.5
	c-6.1,0-14.2,5-14.2,14.3v4.8c0,9.3,8,14.1,14.2,14.1c17,0.1-4.1,0,11.7,0v6.7 M128.3,186.1c0,0,13.3-1.1,13.3-18.3
	s-16.1-18.7-16.1-18.7H96.6v54h14.5v-13l12.6,13h21.5L128.3,186.1L128.3,186.1z M122.7,175.1h-11.6v-12.4h11.7c0,0,3.3,1.2,3.3,6.1
	S122.7,175.1,122.7,175.1L122.7,175.1z M177.5,149.5h-14.8c-10.5,0-14.1,9.5-14.1,14.1v39.6h14.8v-9.5h13.9v9.5h14.3v-39.6
	C191.6,152.1,181.1,149.5,177.5,149.5L177.5,149.5z M177.3,178.4h-13.9v-13.1c0,0,0-3,4.6-3h5.1c4.1,0,4.2,3,4.2,3L177.3,178.4
	L177.3,178.4L177.3,178.4z M198.3,149.5h15.4v53.6h-15.4V149.5z M235.3,189.3v-39.8H220v53.6h36v-13.9H235.3z"/>
<path class="st0" d="M5.2,203.2h59.9c0,0-11.4-52.2,26.4-73.4c8.3-4,34.6-19,77.6,12.8c1.4-1.1,2.7-2,2.7-2s-39.4-39.3-83.3-34.9
	c-22.1,2-49.2,22.1-65.1,48.6S5.2,203.2,5.2,203.2z"/>
<path class="st0" d="M5.2,203.2h59.9c0,0-11.4-52.2,26.4-73.4c8.3-4,34.6-19,77.6,12.8c1.4-1.1,2.7-2,2.7-2s-39.4-39.3-83.3-34.9
	c-22.1,2-49.2,22.1-65.1,48.6S5.2,203.2,5.2,203.2z"/>
<path class="st0" d="M5.2,203.2h59.9c0,0-11.4-52.2,26.4-73.4c8.3-4,34.6-19,77.6,12.8c1.4-1.1,2.7-2,2.7-2s-39.4-39.3-83.3-34.9
	c-22.1,2-49.3,22.1-65.2,48.6S5.2,203.2,5.2,203.2z M130,109.9l0.3-5.1c-0.7-0.4-2.6-1.3-7.4-2.7l-0.3,5
	C125.1,108,127.5,108.9,130,109.9z"/>
<path class="st0" d="M122.8,126l-0.3,4.8c2.5,0.1,5,0.4,7.5,0.9l0.3-4.7C127.7,126.4,125.2,126.1,122.8,126z M94.7,102.3h0.8
	L94,97.7c-2.3,0-4.8,0.2-7.3,0.5l1.4,4.5C90.3,102.4,92.5,102.3,94.7,102.3z M98.4,130.2l1.7,5.2c2.2-1.1,4.4-2,6.6-2.7l-1.7-5
	C102.5,128.5,100.3,129.4,98.4,130.2L98.4,130.2z M64,110.3l-3.4-5.2c-1.9,1-3.9,2-5.9,3.3l3.5,5.3C60.1,112.4,62,111.3,64,110.3
	L64,110.3z M79.5,144.4l3.6,5.5c1.3-1.9,2.8-3.6,4.5-5.4l-3.4-5.2C82.5,140.9,80.9,142.6,79.5,144.4L79.5,144.4z M68.5,168.8
	l6.1,4.8c0.3-3,0.8-5.9,1.6-8.9l-5.5-4.3C69.8,163.3,69.1,166.1,68.5,168.8L68.5,168.8z M35.3,132.8l-5.4-4.7
	c-2,1.9-3.9,3.8-5.6,5.7l5.8,5C31.8,136.7,33.5,134.7,35.3,132.8L35.3,132.8z M12.4,166.7l-8.7-3.2c-1.4,3.3-3,7-3.8,9.1l8.7,3.2
	C9.6,173.2,11.2,169.5,12.4,166.7z M67.4,188c0.2,4,0.5,7.3,0.9,9.5l9.1,3.3c-0.7-3-1.4-6.3-1.8-9.9L67.4,188z"/>
</svg>
