<?xml version="1.0" encoding="utf-8"?>
<!-- Generator: Adobe Illustrator 24.0.2, SVG Export Plug-In . SVG Version: 6.00 Build 0)  -->
<svg version="1.1"
	 id="Layer_1" xmlns:cc="http://creativecommons.org/ns#" xmlns:dc="http://purl.org/dc/elements/1.1/" xmlns:inkscape="http://www.inkscape.org/namespaces/inkscape" xmlns:rdf="http://www.w3.org/1999/02/22-rdf-syntax-ns#" xmlns:sodipodi="http://sodipodi.sourceforge.net/DTD/sodipodi-0.dtd" xmlns:svg="http://www.w3.org/2000/svg"
	 xmlns="http://www.w3.org/2000/svg" xmlns:xlink="http://www.w3.org/1999/xlink" x="0px" y="0px" viewBox="0 0 300 300"
	 style="enable-background:new 0 0 300 300;" xml:space="preserve">
<style type="text/css">
	.st0{fill:#61DAFB;}
</style>
<sodipodi:namedview  bordercolor="#666666" borderopacity="1" gridtolerance="10" guidetolerance="10" id="namedview3487" inkscape:current-layer="Layer_1" inkscape:cx="99.065005" inkscape:cy="98.790004" inkscape:pageopacity="0" inkscape:pageshadow="2" inkscape:window-height="1124" inkscape:window-maximized="0" inkscape:window-width="1036" inkscape:window-x="882" inkscape:window-y="24" inkscape:zoom="1.3412289" objecttolerance="10" pagecolor="#ffffff" showgrid="false">
	</sodipodi:namedview>
<g>
	<path class="st0" d="M300,150c0-19.9-24.9-38.7-63-50.4c8.8-38.9,4.9-69.8-12.4-79.7c-4-2.3-8.6-3.4-13.7-3.4v13.6
		c2.8,0,5.1,0.6,7,1.6c8.3,4.8,11.9,22.9,9.1,46.3c-0.7,5.7-1.8,11.8-3.1,18c-12-2.9-25.1-5.2-38.8-6.7
		c-8.3-11.3-16.8-21.6-25.4-30.6c19.9-18.5,38.6-28.7,51.4-28.7V16.4c-16.8,0-38.8,12-61.1,32.8c-22.3-20.7-44.3-32.5-61.1-32.5
		v13.6c12.7,0,31.4,10.1,51.4,28.5c-8.6,9-17.1,19.2-25.3,30.5C101.1,90.8,88,93,76,96c-1.4-6.1-2.4-12-3.2-17.7
		C70,54.9,73.5,36.8,81.8,32c1.8-1.1,4.2-1.6,7-1.6V16.7c-5.1,0-9.8,1.1-13.8,3.4c-17.2,9.9-21,40.8-12.2,79.6
		C24.8,111.4,0,130.2,0,150c0,19.9,24.9,38.7,63,50.4c-8.8,38.9-4.9,69.8,12.4,79.7c4,2.3,8.6,3.4,13.8,3.4
		c16.8,0,38.8-12,61.1-32.8c22.3,20.7,44.3,32.5,61.1,32.5c5.1,0,9.8-1.1,13.8-3.4c17.2-9.9,21-40.8,12.2-79.6
		C275.2,188.7,300,169.8,300,150L300,150z M220.4,109.2c-2.3,7.9-5.1,16-8.3,24.2c-2.5-4.9-5.1-9.8-8-14.7
		c-2.8-4.9-5.8-9.7-8.8-14.3C204,105.7,212.4,107.3,220.4,109.2L220.4,109.2z M192.4,174.4c-4.8,8.3-9.7,16.1-14.7,23.4
		c-9.1,0.8-18.3,1.2-27.6,1.2c-9.2,0-18.5-0.4-27.5-1.2c-5.1-7.3-10-15-14.8-23.2c-4.6-8-8.9-16.1-12.7-24.3
		c3.8-8.2,8.1-16.4,12.7-24.4c4.8-8.3,9.7-16.1,14.7-23.4c9.1-0.8,18.3-1.2,27.6-1.2c9.2,0,18.5,0.4,27.5,1.2
		c5.1,7.3,10,15,14.8,23.2c4.6,8,8.9,16.1,12.7,24.3C201.2,158.2,197,166.4,192.4,174.4L192.4,174.4z M212.1,166.4
		c3.3,8.2,6.1,16.4,8.4,24.3c-8,2-16.4,3.6-25.2,4.9c3-4.7,6-9.5,8.8-14.5C207,176.3,209.6,171.3,212.1,166.4L212.1,166.4z
		 M150.1,231.7c-5.7-5.9-11.4-12.4-17-19.6c5.5,0.2,11.1,0.4,16.8,0.4c5.7,0,11.4-0.1,17-0.4C161.4,219.3,155.7,225.8,150.1,231.7z
		 M104.6,195.6c-8.7-1.3-17.1-2.9-25.1-4.8c2.3-7.9,5.1-16,8.3-24.2c2.5,4.9,5.1,9.8,8,14.7S101.6,191,104.6,195.6z M149.8,68.4
		c5.7,5.9,11.4,12.4,17,19.6c-5.5-0.2-11.1-0.4-16.8-0.4c-5.7,0-11.4,0.1-17,0.4C138.5,80.8,144.2,74.3,149.8,68.4z M104.6,104.4
		c-3,4.7-6,9.5-8.8,14.5c-2.8,4.9-5.4,9.8-7.9,14.7c-3.3-8.2-6.1-16.4-8.4-24.3C87.4,107.3,95.8,105.7,104.6,104.4L104.6,104.4z
		 M49.2,181c-21.6-9.2-35.7-21.3-35.7-30.9s14-21.8,35.7-30.9c5.3-2.3,11-4.3,16.9-6.2c3.5,12,8.1,24.5,13.8,37.2
		c-5.6,12.7-10.2,25.1-13.6,37.1C60.3,185.3,54.5,183.2,49.2,181L49.2,181z M82.1,268.4c-8.3-4.8-11.9-22.9-9.1-46.3
		c0.7-5.7,1.8-11.8,3.1-18c12,2.9,25.1,5.2,38.8,6.7c8.3,11.3,16.8,21.6,25.4,30.6C120.5,259.9,101.8,270,89,270
		C86.3,269.9,84,269.4,82.1,268.4L82.1,268.4z M227.2,221.8c2.9,23.4-0.7,41.5-8.9,46.4c-1.8,1.1-4.2,1.6-7,1.6
		c-12.7,0-31.4-10.1-51.4-28.5c8.6-9,17.1-19.2,25.3-30.5c13.8-1.5,26.9-3.7,38.9-6.7C225.4,210.1,226.5,216.1,227.2,221.8z
		 M250.7,181c-5.3,2.3-11,4.3-16.9,6.2c-3.5-12-8.1-24.5-13.8-37.2c5.6-12.7,10.2-25.1,13.6-37.1c6.1,1.9,11.8,4,17.2,6.2
		c21.6,9.2,35.7,21.3,35.7,30.9C286.4,159.6,272.4,171.8,250.7,181L250.7,181z"/>
	<circle class="st0" cx="149.9" cy="150" r="27.9"/>
</g>
</svg>
