<?xml version="1.0" encoding="utf-8"?>
<!-- Generator: Adobe Illustrator 24.0.2, SVG Export Plug-In . SVG Version: 6.00 Build 0)  -->
<svg version="1.1"
	 id="Layer_1" xmlns:cc="http://creativecommons.org/ns#" xmlns:dc="http://purl.org/dc/elements/1.1/" xmlns:inkscape="http://www.inkscape.org/namespaces/inkscape" xmlns:rdf="http://www.w3.org/1999/02/22-rdf-syntax-ns#" xmlns:sodipodi="http://sodipodi.sourceforge.net/DTD/sodipodi-0.dtd" xmlns:svg="http://www.w3.org/2000/svg"
	 xmlns="http://www.w3.org/2000/svg" xmlns:xlink="http://www.w3.org/1999/xlink" x="0px" y="0px" viewBox="0 0 300 300"
	 style="enable-background:new 0 0 300 300;" xml:space="preserve">
<style type="text/css">
	.st0{fill:#764ABC;}
</style>
<sodipodi:namedview  bordercolor="#666666" borderopacity="1" gridtolerance="10" guidetolerance="10" id="namedview3487" inkscape:current-layer="Layer_1" inkscape:cx="99.065005" inkscape:cy="98.790004" inkscape:pageopacity="0" inkscape:pageshadow="2" inkscape:window-height="1124" inkscape:window-maximized="0" inkscape:window-width="1036" inkscape:window-x="882" inkscape:window-y="24" inkscape:zoom="1.3412289" objecttolerance="10" pagecolor="#ffffff" showgrid="false">
	</sodipodi:namedview>
<path class="st0" d="M207.9,206.5c11.1-1.1,19.5-10.7,19.1-22.1c-0.4-11.5-9.9-20.6-21.4-20.6h-0.8c-11.8,0.4-21,10.3-20.6,22.1
	c0.4,5.7,2.7,10.7,6.1,14.1c-13,25.6-32.8,44.3-62.6,59.9c-20.2,10.7-41.2,14.5-62.2,11.8c-17.2-2.3-30.5-9.9-38.9-22.5
	c-12.2-18.7-13.4-38.9-3.1-59.2c7.3-14.5,18.7-25.2,26-30.5c-1.5-5-3.8-13.4-5-19.5C-10.9,180.2-5.2,234.4,11.6,260
	c12.6,19.1,38.2,30.9,66.4,30.9c7.6,0,15.3-0.8,22.9-2.7C149.8,278.7,186.9,249.6,207.9,206.5L207.9,206.5z M275.1,159.2
	c-29-34-71.8-52.7-120.6-52.7h-6.1c-3.4-6.9-10.7-11.5-18.7-11.5h-0.8c-11.8,0.4-21,10.3-20.6,22.1c0.4,11.5,9.9,20.6,21.4,20.6h0.8
	c8.4-0.4,15.7-5.7,18.7-13h6.9c29,0,56.5,8.4,81.3,24.8c19.1,12.6,32.8,29,40.5,48.9c6.5,16,6.1,31.7-0.8,45.1
	c-10.7,20.2-28.6,31.3-52.3,31.3c-15.3,0-29.8-4.6-37.4-8c-4.2,3.8-11.8,9.9-17.2,13.7c16.4,7.6,33.2,11.8,49.2,11.8
	c36.6,0,63.8-20.2,74.1-40.5C304.5,229.8,303.7,191.6,275.1,159.2L275.1,159.2z M81.1,213c0.4,11.5,9.9,20.6,21.4,20.6h0.8
	c11.8-0.4,21-10.3,20.6-22.1c-0.4-11.5-9.9-20.6-21.4-20.6h-0.8c-0.8,0-1.9,0-2.7,0.4c-15.7-26-22.1-54.2-19.9-84.8
	c1.5-22.9,9.2-42.8,22.5-59.2c11.1-14.1,32.4-21,47-21.4c40.5-0.8,57.6,49.6,58.8,69.9c5,1.1,13.4,3.8,19.1,5.7
	C222,39.7,183.8,7.6,147.2,7.6c-34.4,0-66,24.8-78.6,61.5c-17.6,48.9-6.1,95.8,15.3,132.9C81.9,204.6,80.7,208.8,81.1,213L81.1,213z
	"/>
</svg>
