<?xml version="1.0" encoding="utf-8"?>
<!-- Generator: Adobe Illustrator 24.0.2, SVG Export Plug-In . SVG Version: 6.00 Build 0)  -->
<svg version="1.1" id="Layer_1" xmlns="http://www.w3.org/2000/svg" xmlns:xlink="http://www.w3.org/1999/xlink" x="0px" y="0px"
	 viewBox="0 0 300 300" style="enable-background:new 0 0 300 300;" xml:space="preserve">
<style type="text/css">
	.st0{fill:#CF649A;}
</style>
<path class="st0" d="M258.3,166.7c-10.5,0.1-19.6,2.6-27.2,6.3c-2.8-5.6-5.6-10.4-6.1-14.1c-0.5-4.2-1.2-6.8-0.5-11.8
	c0.6-5,3.6-12.2,3.6-12.8c-0.1-0.5-0.6-3.1-6.7-3.2s-11.3,1.2-11.8,2.8c-0.6,1.6-1.8,5.2-2.5,9c-1.1,5.5-12.1,25-18.3,35.3
	c-2.1-4-3.8-7.5-4.2-10.3c-0.5-4.2-1.2-6.8-0.5-11.8c0.6-5,3.6-12.2,3.6-12.8c-0.1-0.5-0.6-3.1-6.7-3.2c-6-0.1-11.3,1.2-11.8,2.8
	c-0.6,1.6-1.2,5.3-2.5,9c-1.2,3.6-15.9,36.2-19.7,44.7c-1.9,4.3-3.6,7.8-4.9,10.1c-1.2,2.3-0.1,0.2-0.2,0.4c-1.1,2-1.6,3.1-1.6,3.1
	v0.1c-0.8,1.5-1.7,2.9-2.1,2.9c-0.3,0-0.9-3.9,0.1-9.3c2.2-11.3,7.4-28.9,7.4-29.6c0-0.3,1-3.4-3.4-5c-4.3-1.6-5.8,1.1-6.2,1.1
	c-0.4,0-0.6,0.9-0.6,0.9s4.7-19.9-9.1-19.9c-8.7,0-20.6,9.4-26.5,18c-3.8,2.1-11.7,6.4-20.2,11c-3.2,1.8-6.6,3.6-9.7,5.3l-0.6-0.7
	c-16.8-17.9-47.8-30.5-46.5-54.6c0.5-8.7,3.5-31.8,59.5-59.7c45.9-22.9,82.6-16.6,89-2.6c9.1,19.9-19.6,57-67.3,62.3
	c-18.2,2.1-27.7-5-30.1-7.6c-2.5-2.8-2.9-2.9-3.8-2.3c-1.5,0.8-0.6,3.3,0,4.7c1.4,3.7,7.3,10.3,17.2,13.5c8.7,2.9,30.1,4.5,55.8-5.5
	c28.9-11.2,51.4-42.2,44.8-68.2c-6.7-26.4-50.6-35.1-92-20.4c-24.7,8.8-51.4,22.5-70.6,40.5c-22.9,21.3-26.5,40-25,47.7
	c5.3,27.6,43.4,45.6,58.6,58.9c-0.8,0.4-1.5,0.8-2.1,1.2c-7.6,3.7-36.6,18.9-43.9,35c-8.2,18.2,1.3,31.2,7.6,33
	c19.6,5.4,39.6-4.3,50.5-20.5c10.8-16.1,9.5-37,4.5-46.6l-0.2-0.4l6-3.5c3.9-2.3,7.7-4.4,11-6.2c-1.9,5.1-3.2,11.1-3.9,19.9
	c-0.8,10.3,3.4,23.7,9,28.9c2.5,2.3,5.4,2.3,7.2,2.3c6.4,0,9.4-5.3,12.6-11.7c4-7.8,7.5-16.8,7.5-16.8s-4.4,24.4,7.6,24.4
	c4.4,0,8.8-5.7,10.8-8.6v0.1c0,0,0.1-0.2,0.4-0.6c0.2-0.4,0.5-0.7,0.7-1.1v-0.1c1.8-3,5.7-10,11.5-21.6
	c7.6-14.9,14.8-33.5,14.8-33.5s0.7,4.6,2.9,12.1c1.3,4.5,4.1,9.3,6.3,14.1c-1.8,2.5-2.8,3.9-2.8,3.9l0.1,0.1c-1.4,1.9-3,3.9-4.6,5.9
	c-6,7.1-13.1,15.3-14.1,17.6c-1.1,2.8-0.9,4.8,1.3,6.4c1.6,1.2,4.4,1.4,7.4,1.2c5.4-0.4,9.1-1.7,11-2.5c2.9-1.1,6.3-2.6,9.5-5
	c5.9-4.3,9.4-10.5,9.1-18.7c-0.2-4.5-1.6-9-3.5-13.2c0.5-0.8,1.1-1.5,1.6-2.3c9.3-13.5,16.4-28.4,16.4-28.4s0.7,4.6,2.9,12.1
	c1.1,3.8,3.3,8,5.3,12.1c-8.7,7.1-14.1,15.3-16,20.7c-3.5,10-0.8,14.5,4.3,15.5c2.3,0.5,5.6-0.6,8-1.6c3-1,6.7-2.7,10.1-5.2
	c5.9-4.3,11.5-10.4,11.2-18.5c-0.2-3.8-1.2-7.4-2.5-11c7.4-3,16.9-4.8,29.1-3.3c26.1,3,31.2,19.3,30.2,26.1
	c-1,6.8-6.4,10.5-8.3,11.7c-1.8,1.1-2.4,1.5-2.2,2.3c0.2,1.2,1.1,1.2,2.6,0.9c2.2-0.4,13.7-5.6,14.2-18.1
	C300.7,184.1,285.4,166.5,258.3,166.7L258.3,166.7z M57.1,234.5c-8.6,9.4-20.7,13-25.9,10c-5.6-3.2-3.4-17.1,7.2-27.1
	c6.4-6.1,14.8-11.7,20.3-15.2c1.2-0.8,3.1-1.9,5.3-3.2c0.4-0.2,0.6-0.4,0.6-0.4c0.4-0.2,0.9-0.5,1.3-0.8
	C70,212,66.2,224.6,57.1,234.5L57.1,234.5z M120.1,191.7c-3,7.3-9.3,26.1-13.1,25.1c-3.3-0.9-5.3-15.1-0.6-29.2
	c2.3-7.1,7.3-15.5,10.3-18.8c4.7-5.3,9.9-7,11.2-4.9C129.3,166.7,122,187.1,120.1,191.7z M172.1,216.5c-1.3,0.6-2.5,1.1-3,0.8
	c-0.4-0.2,0.5-1.1,0.5-1.1s6.5-7,9.1-10.2c1.5-1.9,3.2-4,5.1-6.5v0.7C183.8,208.6,175.7,214.2,172.1,216.5L172.1,216.5z
	 M212.2,207.4c-0.9-0.7-0.8-2.9,2.3-9.7c1.2-2.7,4-7.2,8.9-11.5c0.6,1.8,0.9,3.5,0.9,5C224.3,201.8,216.8,205.7,212.2,207.4z"/>
</svg>
