<?xml version="1.0" encoding="utf-8"?>
<!-- Generator: Adobe Illustrator 24.0.2, SVG Export Plug-In . SVG Version: 6.00 Build 0)  -->
<svg version="1.1" id="Layer_1" xmlns="http://www.w3.org/2000/svg" xmlns:xlink="http://www.w3.org/1999/xlink" x="0px" y="0px"
	 viewBox="0 0 300 300" style="enable-background:new 0 0 300 300;" xml:space="preserve">
<style type="text/css">
	.st0{fill:url(#shadow_1_);}
	.st1{fill:url(#brim_1_);}
	.st2{fill:#CEC7BC;}
	.st3{fill:url(#crown_1_);}
	.st4{fill:url(#side-dent_1_);}
	.st5{fill:url(#gutter-dent_1_);}
	.st6{fill:url(#ribbon_1_);}
</style>
<radialGradient id="shadow_1_" cx="-79.8517" cy="538.044" r="15.5888" gradientTransform="matrix(9.7644 0 0 -3.5865 929.023 2122.7349)" gradientUnits="userSpaceOnUse">
	<stop  offset="0.694" style="stop-color:#AFADAE"/>
	<stop  offset="0.968" style="stop-color:#AFADAE;stop-opacity:0"/>
</radialGradient>
<path id="shadow_4_" class="st0" d="M7.6,189.9c0-32.6,65.9-58.9,147.1-58.9s147.1,26.4,147.1,58.9s-65.9,58.9-147.1,58.9
	C73.4,248.9,7.6,222.5,7.6,189.9z"/>
<radialGradient id="brim_1_" cx="205.7813" cy="151.3501" r="21.287" gradientTransform="matrix(-9.6238 1.6492 0.895 5.2239 2055.9412 -977.7949)" gradientUnits="userSpaceOnUse">
	<stop  offset="0.476" style="stop-color:#F3EFE9"/>
	<stop  offset="0.568" style="stop-color:#EEEAE3"/>
	<stop  offset="0.688" style="stop-color:#E1DBD2"/>
	<stop  offset="0.824" style="stop-color:#CDC5B7"/>
	<stop  offset="0.963" style="stop-color:#B4AA98"/>
</radialGradient>
<path id="brim_4_" class="st1" d="M5.1,195.5c0,0-24.1-46.9,55.5-73.1c37.3-12.3,81-20.4,120-21.8c44.5-1.5,84,6.2,101.2,32.5
	c12.4,19,4.9,42.2-19.1,60.2c-14.4,10.8-46,21.6-67.1,27.7c-21.1,6-62.5,14.1-96.3,12.2S23.4,226.3,5.1,195.5L5.1,195.5z"/>
<path id="brim_hl" class="st2" d="M5.1,195.5c0,0-24.1-46.9,55.5-73.1c37.3-12.3,81-20.4,120-21.8c44.5-1.5,84,6.2,101.2,32.5
	c12.4,19,4.9,42.2-19.1,60.2c-14.4,10.8-46,21.6-67.1,27.7c-21.1,6-62.5,14.1-96.3,12.2S23.4,226.3,5.1,195.5L5.1,195.5z M100,231.7
	c33,1.9,73.4-6.1,93.9-12c20.5-5.9,51.8-15.9,65.9-26.5c23.4-17.6,32.9-39.5,19.8-59.6c-16.6-25.8-57.1-33.7-100.4-32.2
	c-38,1.3-80.6,10.3-116.9,22.3C-15.5,149.3,8,195,8,195C26,225,67,229.8,100,231.7L100,231.7z"/>
<linearGradient id="crown_1_" gradientUnits="userSpaceOnUse" x1="-88.5283" y1="383.541" x2="-71.3197" y2="382.2396" gradientTransform="matrix(9.7644 0 0 -9.7644 929.023 3846.4934)">
	<stop  offset="9.400000e-02" style="stop-color:#D7D0C6"/>
	<stop  offset="0.248" style="stop-color:#CDC7BB"/>
	<stop  offset="0.401" style="stop-color:#C7C2B5"/>
	<stop  offset="0.525" style="stop-color:#CBC6BA"/>
	<stop  offset="0.669" style="stop-color:#D7D1C7"/>
	<stop  offset="0.78" style="stop-color:#E6DFD6"/>
	<stop  offset="0.892" style="stop-color:#E7E3D9"/>
	<stop  offset="0.934" style="stop-color:#E5DFD3"/>
	<stop  offset="0.98" style="stop-color:#DFD5C6"/>
</linearGradient>
<path id="crown_4_" class="st3" d="M68.9,158.1c-6.9-5-16.6-29.8-12.9-35.2c3.7-5.4,9.4-16.6,12.5-27.7c3.2-10.9,7.6-34.1,16.4-42.3
	s21.9-8.2,39.3-6.3c17.2,1.9,67.7,11,80,15.3c12.2,4.3,28.1,12.5,27.2,31.6c-0.9,19.1,0.8,28.6-1.4,39.3
	c-2.2,10.7-25.4,31.4-54.6,32.9C146.1,167.6,75.8,163.2,68.9,158.1L68.9,158.1z"/>
<radialGradient id="side-dent_1_" cx="-8.8556" cy="349.3978" r="6.4521" gradientTransform="matrix(0.8608 9.7263 26.2095 -2.32 -9019.1689 970.3569)" gradientUnits="userSpaceOnUse">
	<stop  offset="6.700000e-02" style="stop-color:#B2A797"/>
	<stop  offset="0.29" style="stop-color:#C7BDAE"/>
	<stop  offset="0.481" style="stop-color:#D6CEBF"/>
	<stop  offset="0.688" style="stop-color:#E2DCD0"/>
	<stop  offset="0.942" style="stop-color:#F7F5EE"/>
</radialGradient>
<path id="side-dent_2_" class="st4" d="M151.5,134.6c0,0,30.1-4,48.3-21s2.1-29.2-2.8-32.2s-21.4-11-47.6-9.8
	c-26.1,1.2-51.9,1.4-50.1,20.7C101,111.5,122.1,134.6,151.5,134.6L151.5,134.6z"/>
<linearGradient id="gutter-dent_1_" gradientUnits="userSpaceOnUse" x1="-86.652" y1="387.3769" x2="-73.7212" y2="387.3769" gradientTransform="matrix(9.7644 0 0 -9.7644 929.023 3846.4934)">
	<stop  offset="5.600001e-02" style="stop-color:#F7F5EE"/>
	<stop  offset="0.226" style="stop-color:#E6E1D6"/>
	<stop  offset="0.43" style="stop-color:#D8D1C3"/>
	<stop  offset="0.639" style="stop-color:#D0C8B9"/>
	<stop  offset="0.857" style="stop-color:#CEC5B5"/>
</linearGradient>
<path id="gutter-dent_2_" class="st5" d="M84.9,76.5c-3.3-2.1-3.7-13.6,8.4-21.4c12.2-7.7,43.6-3,64,1.9
	c20.5,4.9,53.5,11.8,51.8,13.7c-1.8,1.8-51-4.2-73.5-3C105.1,69.2,90.1,79.7,84.9,76.5z"/>
<linearGradient id="ribbon_1_" gradientUnits="userSpaceOnUse" x1="-89.8681" y1="377.8989" x2="-71.3967" y2="377.8989" gradientTransform="matrix(9.7644 0 0 -9.7644 929.023 3846.4934)">
	<stop  offset="1.800000e-02" style="stop-color:#262222"/>
	<stop  offset="9.600000e-02" style="stop-color:#2F2C2C"/>
	<stop  offset="0.3" style="stop-color:#424143"/>
	<stop  offset="0.402" style="stop-color:#4A4A4C"/>
	<stop  offset="0.514" style="stop-color:#4A4A4C"/>
	<stop  offset="0.78" style="stop-color:#383536"/>
	<stop  offset="1" style="stop-color:#262222"/>
</linearGradient>
<path id="ribbon_5_" class="st6" d="M230.9,129.8c-0.4,0-0.5,1.1-0.9,1.6c-3.9,6.3-15.3,17.1-41.5,17.1h-71
	c-44.8,0-57.8-12.1-61-20.7c-0.2-0.8-0.6-1.9-0.9-1.9s-0.6,1.9-0.6,1.9l-3.4,32.5c0,14.9,38.5,26.9,88.1,26.9s92.1-7,92.1-26.9
	c0,0,0.2-19.8,0.1-28.6C231.8,130.7,231.7,129.8,230.9,129.8L230.9,129.8z"/>
</svg>
