<?xml version="1.0" encoding="utf-8"?>
<!-- Generator: Adobe Illustrator 24.0.2, SVG Export Plug-In . SVG Version: 6.00 Build 0)  -->
<svg version="1.1" id="Layer_1" xmlns="http://www.w3.org/2000/svg" xmlns:xlink="http://www.w3.org/1999/xlink" x="0px" y="0px"
	 viewBox="0 0 300 300" style="enable-background:new 0 0 300 300;" xml:space="preserve">
<style type="text/css">
	.st0{fill-rule:evenodd;clip-rule:evenodd;fill:#36C5F0;}
	.st1{fill-rule:evenodd;clip-rule:evenodd;fill:#2EB67D;}
	.st2{fill-rule:evenodd;clip-rule:evenodd;fill:#ECB22E;}
	.st3{fill-rule:evenodd;clip-rule:evenodd;fill:#E01E5A;}
</style>
<g>
	<path class="st0" d="M110.1,0C93.5,0,80.1,13.4,80.1,30c0,16.6,13.4,30,29.9,30H140V30C140,13.5,126.6,0,110.1,0
		C110.1,0,110.1,0,110.1,0 M110.1,80H30.2c-16.6,0-30,13.4-29.9,30c0,16.6,13.4,30,29.9,30h79.8c16.6,0,30-13.4,29.9-30
		C140,93.4,126.6,80,110.1,80L110.1,80z"/>
	<path class="st1" d="M299.7,110c0-16.6-13.4-30-29.9-30c-16.6,0-30,13.4-29.9,30v30h29.9C286.3,140,299.7,126.6,299.7,110z
		 M219.9,110V30c0-16.5-13.4-30-29.9-30c-16.6,0-30,13.4-29.9,30v80c0,16.6,13.4,30,29.9,30C206.5,140,219.9,126.6,219.9,110z"/>
	<path class="st2" d="M189.9,300c16.6,0,30-13.4,29.9-30c0-16.6-13.4-30-29.9-30H160v30C160,286.5,173.4,300,189.9,300z M189.9,220
		h79.8c16.6,0,30-13.4,29.9-30c0-16.6-13.4-30-29.9-30h-79.8c-16.6,0-30,13.4-29.9,30C160,206.5,173.4,220,189.9,220L189.9,220z"/>
	<path class="st3" d="M0.3,190c0,16.6,13.4,30,29.9,30c16.6,0,30-13.4,29.9-30v-30H30.2C13.7,160,0.3,173.4,0.3,190z M80.1,190v80
		c0,16.6,13.4,30,29.9,30c16.6,0,30-13.4,29.9-30v-80c0-16.6-13.4-30-29.9-30C93.5,160,80.1,173.4,80.1,190
		C80.1,190,80.1,190,80.1,190"/>
</g>
</svg>
