<?xml version="1.0" encoding="utf-8"?>
<!-- Generator: Adobe Illustrator 24.0.2, SVG Export Plug-In . SVG Version: 6.00 Build 0)  -->
<svg version="1.1" id="Layer_1" xmlns="http://www.w3.org/2000/svg" xmlns:xlink="http://www.w3.org/1999/xlink" x="0px" y="0px"
	 viewBox="0 0 300 300" style="enable-background:new 0 0 300 300;" xml:space="preserve">
<style type="text/css">
	.st0{fill:url(#SVGID_1_);}
	.st1{fill:#FFFFFF;}
</style>
<linearGradient id="SVGID_1_" gradientUnits="userSpaceOnUse" x1="-211.8551" y1="8.387190e-02" x2="-211.8551" y2="0.2039" gradientTransform="matrix(2500 0 0 2500 529788 -209.9887)">
	<stop  offset="0" style="stop-color:#0091E6"/>
	<stop  offset="1" style="stop-color:#0079BF"/>
</linearGradient>
<path class="st0" d="M29.4-0.3h241.4c16.2,0,29.3,13.1,29.3,29.3v241.4c0,16.2-13.1,29.3-29.3,29.3H29.4
	c-16.2,0-29.3-13.1-29.3-29.3V29C0.1,12.8,13.2-0.3,29.4-0.3z"/>
<path class="st1" d="M183.7,38.7h63.4c7.8,0,14.1,6.3,14.1,14.1v103.1c0,7.8-6.3,14.1-14.1,14.1h-63.4c-7.8,0-14.1-6.3-14.1-14.1
	V52.8C169.6,45,175.9,38.7,183.7,38.7z"/>
<path class="st1" d="M53.2,38.7h63.4c7.8,0,14.1,6.3,14.1,14.1v178.1c0,7.8-6.3,14.1-14.1,14.1H53.2c-7.8,0-14.1-6.3-14.1-14.1V52.8
	C39.1,45,45.4,38.7,53.2,38.7z"/>
</svg>
